<mxfile host="app.diagrams.net" modified="2021-01-14T02:48:40.228Z" agent="5.0 (X11; Linux x86_64) AppleWebKit/537.36 (KHTML, like Gecko) Chrome/87.0.4280.141 Safari/537.36" etag="R-a_DeyhKEqJ5OsZdv6H" version="14.1.9" type="github">
  <diagram name="Page-1" id="e7e014a7-5840-1c2e-5031-d8a46d1fe8dd">
    <mxGraphModel dx="1422" dy="801" grid="1" gridSize="10" guides="1" tooltips="1" connect="1" arrows="1" fold="1" page="1" pageScale="1" pageWidth="1169" pageHeight="826" background="#ffffff" math="0" shadow="0">
      <root>
        <mxCell id="0" />
        <mxCell id="1" parent="0" />
        <mxCell id="u8zgnxNEtdgUwyd63ray-53" value="" style="rounded=1;whiteSpace=wrap;html=1;fillColor=#d5e8d4;strokeColor=#82b366;" parent="1" vertex="1">
          <mxGeometry x="320" y="210" width="400" height="130" as="geometry" />
        </mxCell>
        <mxCell id="u8zgnxNEtdgUwyd63ray-42" value="&lt;h1&gt;&lt;b&gt;服务注册/发现&lt;/b&gt;&lt;/h1&gt;" style="rounded=1;whiteSpace=wrap;html=1;fillColor=#fff2cc;strokeColor=#d6b656;" parent="1" vertex="1">
          <mxGeometry x="200" y="210" width="90" height="520" as="geometry" />
        </mxCell>
        <mxCell id="u8zgnxNEtdgUwyd63ray-43" value="&lt;h1&gt;负载均衡&lt;/h1&gt;" style="rounded=1;whiteSpace=wrap;html=1;fillColor=#fff2cc;strokeColor=#d6b656;" parent="1" vertex="1">
          <mxGeometry x="750" y="210" width="90" height="520" as="geometry" />
        </mxCell>
        <mxCell id="u8zgnxNEtdgUwyd63ray-44" value="&lt;b&gt;Android APP&lt;/b&gt;" style="rounded=1;whiteSpace=wrap;html=1;fillColor=#ffe6cc;strokeColor=#d79b00;" parent="1" vertex="1">
          <mxGeometry x="200" y="130" width="170" height="60" as="geometry" />
        </mxCell>
        <mxCell id="u8zgnxNEtdgUwyd63ray-45" value="&lt;b&gt;Ios APP&lt;/b&gt;" style="rounded=1;whiteSpace=wrap;html=1;fillColor=#ffe6cc;strokeColor=#d79b00;" parent="1" vertex="1">
          <mxGeometry x="420" y="130" width="180" height="60" as="geometry" />
        </mxCell>
        <mxCell id="u8zgnxNEtdgUwyd63ray-46" value="&lt;b&gt;Pc APP&lt;/b&gt;" style="rounded=1;whiteSpace=wrap;html=1;fillColor=#ffe6cc;strokeColor=#d79b00;" parent="1" vertex="1">
          <mxGeometry x="630" y="130" width="210" height="60" as="geometry" />
        </mxCell>
        <mxCell id="u8zgnxNEtdgUwyd63ray-47" value="&lt;b&gt;gateway&lt;/b&gt;" style="rounded=1;whiteSpace=wrap;html=1;" parent="1" vertex="1">
          <mxGeometry x="340" y="240" width="100" height="60" as="geometry" />
        </mxCell>
        <mxCell id="u8zgnxNEtdgUwyd63ray-48" value="&lt;b&gt;auth&lt;/b&gt;" style="rounded=1;whiteSpace=wrap;html=1;" parent="1" vertex="1">
          <mxGeometry x="462.5" y="240" width="110" height="60" as="geometry" />
        </mxCell>
        <mxCell id="u8zgnxNEtdgUwyd63ray-49" value="" style="rounded=1;whiteSpace=wrap;html=1;fillColor=#dae8fc;strokeColor=#6c8ebf;" parent="1" vertex="1">
          <mxGeometry x="320" y="370" width="400" height="290" as="geometry" />
        </mxCell>
        <mxCell id="u8zgnxNEtdgUwyd63ray-50" value="&lt;b&gt;redis&lt;/b&gt;" style="rounded=1;whiteSpace=wrap;html=1;fillColor=#b1ddf0;strokeColor=#10739e;" parent="1" vertex="1">
          <mxGeometry x="320" y="670" width="120" height="60" as="geometry" />
        </mxCell>
        <mxCell id="u8zgnxNEtdgUwyd63ray-51" value="&lt;b&gt;hbase&lt;/b&gt;" style="rounded=1;whiteSpace=wrap;html=1;fillColor=#b1ddf0;strokeColor=#10739e;" parent="1" vertex="1">
          <mxGeometry x="470" y="670" width="105" height="60" as="geometry" />
        </mxCell>
        <mxCell id="u8zgnxNEtdgUwyd63ray-52" value="mysql" style="rounded=1;whiteSpace=wrap;html=1;fontStyle=1;fillColor=#b1ddf0;strokeColor=#10739e;" parent="1" vertex="1">
          <mxGeometry x="610" y="670" width="110" height="60" as="geometry" />
        </mxCell>
        <mxCell id="u8zgnxNEtdgUwyd63ray-54" value="&lt;b&gt;msgSrv&lt;/b&gt;" style="rounded=1;whiteSpace=wrap;html=1;" parent="1" vertex="1">
          <mxGeometry x="337" y="400" width="100" height="60" as="geometry" />
        </mxCell>
        <mxCell id="u8zgnxNEtdgUwyd63ray-55" value="&lt;b&gt;gidSrv&lt;/b&gt;" style="rounded=1;whiteSpace=wrap;html=1;" parent="1" vertex="1">
          <mxGeometry x="467.5" y="400" width="100" height="60" as="geometry" />
        </mxCell>
        <mxCell id="u8zgnxNEtdgUwyd63ray-56" value="&lt;b&gt;pushSrv&lt;/b&gt;" style="rounded=1;whiteSpace=wrap;html=1;" parent="1" vertex="1">
          <mxGeometry x="337" y="490" width="100" height="60" as="geometry" />
        </mxCell>
        <mxCell id="u8zgnxNEtdgUwyd63ray-57" value="&lt;b&gt;userSrv&lt;/b&gt;" style="rounded=1;whiteSpace=wrap;html=1;" parent="1" vertex="1">
          <mxGeometry x="600" y="400" width="100" height="60" as="geometry" />
        </mxCell>
        <mxCell id="u8zgnxNEtdgUwyd63ray-58" value="&lt;b&gt;fileSrv&lt;/b&gt;" style="rounded=1;whiteSpace=wrap;html=1;" parent="1" vertex="1">
          <mxGeometry x="467.5" y="490" width="100" height="60" as="geometry" />
        </mxCell>
        <mxCell id="u8zgnxNEtdgUwyd63ray-59" value="&lt;b&gt;queue/httpdns&lt;/b&gt;" style="rounded=1;whiteSpace=wrap;html=1;" parent="1" vertex="1">
          <mxGeometry x="595" y="240" width="110" height="60" as="geometry" />
        </mxCell>
        <mxCell id="u8zgnxNEtdgUwyd63ray-60" value="&lt;b&gt;statusSrv&lt;/b&gt;" style="rounded=1;whiteSpace=wrap;html=1;" parent="1" vertex="1">
          <mxGeometry x="600" y="490" width="100" height="60" as="geometry" />
        </mxCell>
        <mxCell id="u8zgnxNEtdgUwyd63ray-61" value="&lt;b&gt;accountSrv&lt;/b&gt;" style="rounded=1;whiteSpace=wrap;html=1;" parent="1" vertex="1">
          <mxGeometry x="337" y="570" width="100" height="60" as="geometry" />
        </mxCell>
        <mxCell id="tNv0gcaFANujgUZ0ETuT-1" value="&lt;b&gt;routeSrv&lt;/b&gt;" style="rounded=1;whiteSpace=wrap;html=1;" vertex="1" parent="1">
          <mxGeometry x="467.5" y="570" width="100" height="60" as="geometry" />
        </mxCell>
      </root>
    </mxGraphModel>
  </diagram>
</mxfile>
